<?xml version="1.0" encoding="utf-8"?>
<!-- Generator: Adobe Illustrator 22.1.0, SVG Export Plug-In . SVG Version: 6.00 Build 0)  -->
<svg version="1.1" id="Слой_2" xmlns="http://www.w3.org/2000/svg" xmlns:xlink="http://www.w3.org/1999/xlink" x="0px" y="0px"
	 viewBox="0 0 2543 2338" style="enable-background:new 0 0 2543 2338;" xml:space="preserve">
<style type="text/css">
	.st0{fill:#E5E5E5;}
	.st1{fill:#B2B2B2;}
	.st2{fill:#989898;}
	.st3{fill:#F1F1F1;}
	.st4{fill:#4D4D4D;}
	.st5{fill:#FFFFFF;}
	.st6{fill:none;stroke:#CBCBCB;stroke-width:6;stroke-miterlimit:10;}
	.st7{fill:none;stroke:#989898;stroke-width:6;stroke-miterlimit:10;}
	.st8{fill:#FFC1C1;}
	.st9{fill:#333333;}
	.st10{fill:#FF494E;}
	.st11{fill:#F1F1F1;stroke:#B2B2B2;stroke-width:4;stroke-miterlimit:10;}
	.st12{opacity:0.26;}
	.st13{fill:#CCCCCC;}
	.st14{fill:#B3B3B3;}
	.st15{fill:none;}
	.st16{fill:#666666;}
	.st17{opacity:0.3;}
	.st18{opacity:0.16;}
	.st19{fill:#1A1A1A;}
	.st20{opacity:0.31;}
	.st21{fill:#FF0000;}
	.st22{fill:#E5E5E5;stroke:#B2B2B2;stroke-width:4;stroke-miterlimit:10;}
</style>
<ellipse class="st0" cx="1255.9" cy="2003.8" rx="1108.9" ry="187.5"/>
<path d="M1380.5,1384.2l-56.4,135.4l41.9,71.6l-319,15.7c-5.6-0.4-97.4,329.1-97.4,329.1l127.6,19l133.2-339.2l155.6-24.6L1292,1936
	h129.5l131.3-390.7l10.1-103l-43.7-41.4L1380.5,1384.2z"/>
<polygon class="st1" points="634.5,1238 546,2070.4 576.5,2070.4 680.7,1242.1 "/>
<polygon class="st1" points="1867.1,1238 1955.6,2070.4 1925.1,2070.4 1820.9,1242.1 "/>
<g>
	<polygon class="st2" points="716.9,1237.6 640.1,1887.9 666.5,1887.9 757.1,1240.7 	"/>
	<polygon class="st2" points="1788.3,1237.6 1865.1,1887.9 1838.7,1887.9 1748.1,1240.7 	"/>
</g>
<ellipse class="st3" cx="1265.6" cy="1115.4" rx="844.6" ry="178.9"/>
<path class="st4" d="M1757.6,830.5H1470l20,135.5l-176-10l16.6-125.5h-306.8c-3.9,0-7-3.1-7-7V350.6c0-3.9,3.1-7,7-7h733.7
	c3.9,0,7,3.1,7,7v472.9C1764.6,827.4,1761.4,830.5,1757.6,830.5z"/>
<rect x="1056" y="376.1" class="st5" width="670.5" height="425.4"/>
<rect x="1365" y="411.9" class="st0" width="330.2" height="122"/>
<g>
	<line class="st6" x1="1085.4" y1="425.3" x2="1257.5" y2="425.3"/>
	<line class="st7" x1="1156.8" y1="451.1" x2="1254.1" y2="450.7"/>
	<line class="st7" x1="1157.9" y1="475.7" x2="1226.2" y2="476.1"/>
	<line class="st7" x1="1156.8" y1="501.4" x2="1313.8" y2="501.5"/>
	<line class="st6" x1="1085.4" y1="526.9" x2="1313.8" y2="526.9"/>
	<line class="st7" x1="1085.4" y1="552.3" x2="1313.8" y2="552.3"/>
	<line class="st7" x1="1156.8" y1="577.6" x2="1313.8" y2="577.7"/>
	<line class="st7" x1="1156.8" y1="603.1" x2="1313.8" y2="603.1"/>
	<line class="st6" x1="1085.4" y1="628.5" x2="1313.8" y2="628.5"/>
	<line class="st7" x1="1156.8" y1="653.7" x2="1313.8" y2="653.9"/>
	<line class="st7" x1="1156.8" y1="679.4" x2="1313.8" y2="679.3"/>
	<line class="st7" x1="1156.8" y1="701.8" x2="1334.7" y2="702.9"/>
	<line class="st6" x1="1085.4" y1="730.1" x2="1319.1" y2="729.8"/>
	<line class="st7" x1="1085.4" y1="755.5" x2="1321.3" y2="755.5"/>
</g>
<path class="st8" d="M1317.8,644.3l-23.5-22.4l-21.3,22.4v33.6c0,0,10.1,16.8,13.4,16.8c3.4,0,17.9,0,17.9,0l-31.3,44.8l-30.2,52.6
	l-60.4,7.8l-9,47l47,23.5l69.4-14.6l-6.7-49.3l51.5-14.6l33.6-82.8l-14.6-60.4l3.4-57.1l-33.6-43.7l-12.3,53.7l22.4,39.2
	L1317.8,644.3z"/>
<polygon class="st9" points="1202.5,477.5 1259.6,477.5 1278.6,459.6 1314.4,485.3 1317.8,466.3 1342.4,521.2 1323.4,548 
	1317.8,600.6 1337.9,649.9 1317.8,651 1294.3,628.6 1273,644.3 1273,677.9 1286.4,694.7 1304.3,694.7 1242.8,792.1 1182.3,799.9 
	1148.7,762.9 1125.2,736.1 1089.4,679 1089.4,590.6 1120.8,538 1165.5,510 "/>
<path class="st10" d="M987.6,890.6l35.8-20.1l134.3-31.3l62.7,31.3l82.8-28l48.1,25.7l99.6,40.3l73.9,193.7l165.7-84l20.1,31.3
	l44.8,32.5L1589.8,1195l-73.9,20.1l-144.4-53.7l-41.4-36.9l-230.6,21.3l-76.1,22.4c0,0-72.8,15.7-78.4,15.7
	c-5.6,0-39.2-33.6-39.2-33.6v-94L987.6,890.6z"/>
<rect x="1232.8" y="110.9" class="st0" width="295.5" height="183.6"/>
<rect x="1490.3" y="567.5" class="st0" width="204.8" height="122"/>
<rect x="1615.7" y="231.7" class="st11" width="298.9" height="206"/>
<polygon class="st5" points="983.1,1941.6 951.7,1981.9 943.9,2020 959.6,2048 1031.2,2051.3 1100.6,1997.6 1111.8,1952.8 
	1084.9,1936 1077.1,1955.1 "/>
<polygon class="st5" points="1301,1936 1276.4,1993.1 1285.3,2037.9 1325.6,2051.3 1380.5,2039 1421.4,2004.3 1427.5,1966.3 
	1421.9,1936 1364.8,1936 "/>
<g>
	<ellipse class="st12" cx="775.1" cy="1010.4" rx="80.3" ry="16.8"/>
	<g>
		<path class="st13" d="M751.6,849.5c0,0-49.5,62.9-112,8.3s-50.1-44.2-50.1-44.2l62-23.1C651.4,790.5,726.8,771,751.6,849.5z"/>
		<path class="st13" d="M782.1,821c0,0-71.5,1.8-55.4-71.1s13.2-58.7,13.2-58.7l45.4,28.9C785.3,720.1,833.6,760.2,782.1,821z"/>
		<path class="st13" d="M788.9,852.5c0,0-0.7-64.9,64-50.2s52.1,12.1,52.1,12.1l-26.3,41.1C878.7,855.5,842.5,899.3,788.9,852.5z"/>
		<g>
			<path class="st14" d="M614.9,838c5.7-2.2,11.6-3.9,17.5-5.5c5.9-1.6,11.9-2.9,17.9-4c12.1-2.1,24.3-3.3,36.6-3
				c3.1,0,6.1,0.3,9.2,0.5c3.1,0.3,6.1,0.6,9.2,1.2c6.1,1,12.1,2.4,18,4.5c5.8,2.1,11.5,4.7,16.7,8.1c5.2,3.4,9.9,7.4,14.1,12
				l-0.3-0.2c0.2,0.1,0.3,0.2,0.4,0.3l0.2,0.2l0.4,0.4l0.8,0.8l1.5,1.6l3,3.1l6,6.3c2,2.1,4,4.2,6,6.2c1,1,2,2,3.1,3
				c0.5,0.5,1,1,1.6,1.5c0.3,0.2,0.6,0.5,0.9,0.7c0.2,0.1,0.3,0.2,0.5,0.2c0.2,0,0.1-0.3,0.1-0.4c0,0.1,0.1,0.2,0.1,0.3
				c0,0.1,0,0.2-0.2,0.2c-0.2,0-0.4-0.1-0.5-0.2c-0.3-0.2-0.6-0.4-0.9-0.6c-0.6-0.4-1.2-0.9-1.7-1.3c-1.1-0.9-2.2-1.9-3.3-2.8
				c-2.2-1.9-4.3-3.9-6.4-5.9c-2.1-2-4.2-4-6.3-6l-3.1-3l-1.6-1.5l-0.8-0.7l-0.4-0.3l-0.2-0.1c0,0-0.1-0.1-0.1,0l-0.3-0.2
				c-4.2-4.3-8.9-8-14-11.2c-5.1-3.2-10.6-5.6-16.3-7.5c-5.7-2-11.6-3.3-17.5-4.3c-3-0.5-6-0.8-9-1.2c-3-0.2-6-0.5-9-0.5
				c-12.1-0.4-24.2,0.5-36.2,2.2C638.6,832.3,626.7,834.7,614.9,838z"/>
		</g>
		<g>
			<path class="st14" d="M888.7,837.7c-0.3,0-0.6-0.1-0.8-0.2l-0.8-0.3l-1.6-0.6l-3.3-1.3c-2.2-0.8-4.4-1.6-6.6-2.4
				c-4.4-1.5-8.9-2.8-13.4-3.9c-9-2.1-18.3-3.5-27.5-3.1c-9.2,0.4-18.3,2.5-26.2,7c-8,4.4-14.5,11.2-19.2,18.9l0.1-0.2l-9.7,24.4
				l-3.3,8.3l0.4-8.9l1.8-36.9c0.1-1.5,0.1-3.1,0.3-4.6c0.1-1.5,0.3-3,0.4-4.6c0.2-3.1,0.4-6.1,0.5-9.2c0.3-6.1,0.4-12.3,0.3-18.4
				c-0.1-12.3-0.8-24.6-2.8-36.7c-1.9-12.1-5-24.1-11-34.9c3.3,5.2,5.8,10.9,7.8,16.7c2,5.9,3.5,11.9,4.7,17.9
				c2.3,12.2,3.3,24.5,3.7,36.9c0.2,6.2,0.2,12.4,0,18.5c-0.1,3.1-0.2,6.2-0.4,9.3c-0.1,1.5-0.2,3.1-0.3,4.6
				c-0.1,1.5-0.1,3.1-0.2,4.6l-1.7,36.9l-2.9-0.6l9.8-24.4l0-0.1l0.1-0.1c5-8.1,12-15.1,20.4-19.6c8.4-4.6,18-6.6,27.4-6.7
				c9.4-0.1,18.8,1.4,27.8,3.9c4.5,1.3,8.9,2.8,13.3,4.5c2.2,0.8,4.3,1.7,6.5,2.7l3.2,1.4l1.6,0.7l0.8,0.4
				C888.2,837.5,888.4,837.7,888.7,837.7z"/>
		</g>
		<g>
			<path class="st14" d="M755.2,790.6c1.7-1.7,3.8-2.8,6.1-3.6c2.3-0.8,4.7-1.2,7.1-1.1c1.2,0,2.4,0.2,3.6,0.4
				c1.2,0.3,2.3,0.6,3.4,1.2c2.2,0.9,4.1,2.4,5.7,4.2c-2.3-0.7-4.3-1.5-6.4-1.9c-1-0.3-2.1-0.4-3.2-0.6c-1.1-0.1-2.1-0.2-3.2-0.2
				c-2.1-0.1-4.3,0.1-6.4,0.4C759.6,789.6,757.4,790,755.2,790.6z"/>
		</g>
		<g>
			<path class="st14" d="M684.1,825c-2.3-0.6-4.4-1.8-6.2-3.2c-1.8-1.5-3.4-3.3-4.6-5.4c-0.6-1-1.1-2.1-1.5-3.2
				c-0.3-1.1-0.7-2.3-0.9-3.5c-0.4-2.3-0.2-4.7,0.4-7c0.7,2.3,1.1,4.4,1.9,6.4c0.3,1,0.8,2,1.2,3c0.2,0.5,0.5,0.9,0.7,1.4
				c0.2,0.5,0.5,0.9,0.8,1.4c1.1,1.8,2.3,3.6,3.7,5.2C681,821.7,682.5,823.3,684.1,825z"/>
		</g>
		<g>
			<path class="st14" d="M658.3,827.7c-2-0.4-3.7-1.4-5.3-2.7c-1.6-1.3-2.9-2.8-3.9-4.6c-0.2-0.5-0.5-0.9-0.7-1.4l-0.5-1.4
				c-0.1-0.5-0.3-1-0.4-1.5c0-0.3-0.1-0.5-0.1-0.8l-0.1-0.8c-0.2-2,0.2-4.1,1-5.9c0.4,2,0.7,3.8,1.3,5.5c0.1,0.4,0.2,0.8,0.4,1.3
				c0.2,0.4,0.3,0.8,0.5,1.2c0.4,0.8,0.7,1.6,1.2,2.3c0.9,1.5,1.9,3,3,4.4C655.8,824.8,657,826.2,658.3,827.7z"/>
		</g>
		<g>
			<path class="st14" d="M707.3,831.8c-1.8,1.5-3.4,2.9-5,4.4c-1.5,1.5-2.9,3.1-4.1,4.9c-0.3,0.4-0.6,0.8-0.9,1.3
				c-0.3,0.4-0.6,0.9-0.8,1.3c-0.5,0.9-1,1.8-1.4,2.8c-1,1.9-1.6,4-2.4,6.2c-0.4-2.3-0.4-4.7,0.2-7c0.2-1.2,0.7-2.3,1.1-3.4
				c0.5-1.1,1.1-2.1,1.8-3.1c1.4-1.9,3.1-3.6,5.1-4.9C702.8,833.1,704.9,832.1,707.3,831.8z"/>
		</g>
		<g>
			<path class="st14" d="M676.3,829.1c-1.1,1.2-2.1,2.4-3,3.5c-0.9,1.1-1.8,2.3-2.5,3.5c-0.8,1.2-1.5,2.4-2.1,3.7
				c-0.7,1.3-1.2,2.7-2,4.2c-0.5-1.6-0.6-3.3-0.2-4.9c0.3-1.6,0.9-3.2,1.9-4.6c0.9-1.4,2.1-2.6,3.5-3.6
				C673.1,829.9,674.6,829.2,676.3,829.1z"/>
		</g>
		<g>
			<path class="st15" d="M779.2,802.6"/>
		</g>
		<g>
			<path class="st14" d="M778.7,776.8c2.1-0.8,4-1.6,5.9-2.5c1.9-0.9,3.6-1.9,5.3-3.1c0.8-0.6,1.6-1.2,2.4-1.9
				c0.7-0.7,1.5-1.4,2.1-2.2c1.4-1.5,2.5-3.3,3.8-5.1c-0.1,2.2-0.7,4.5-1.9,6.5l-0.4,0.8c-0.1,0.2-0.3,0.5-0.5,0.7
				c-0.3,0.5-0.7,0.9-1.1,1.4l-1.2,1.2c-0.4,0.4-0.9,0.7-1.4,1.1c-1.9,1.4-4,2.3-6.2,2.9C783.2,777,780.9,777.2,778.7,776.8z"/>
		</g>
		<g>
			<path class="st14" d="M836.8,849.4c-0.8-2.6-1.7-5.1-2.9-7.4c-1.1-2.3-2.5-4.4-4.2-6.2c-0.8-0.9-1.8-1.7-2.7-2.4
				c-1-0.7-2.1-1.3-3.2-1.9c-2.3-1.1-4.8-1.7-7.5-2.3c2.7-0.7,5.5-0.6,8.3,0.1c1.4,0.4,2.7,1,4,1.7c1.2,0.8,2.4,1.7,3.4,2.8
				c2,2.1,3.4,4.7,4.2,7.4C836.9,843.9,837.2,846.7,836.8,849.4z"/>
		</g>
		<g>
			<path class="st14" d="M854.1,810.4c0.1,0.4,0,0.9,0,1.3c-0.1,0.4-0.2,0.8-0.2,1.2c-0.2,0.8-0.5,1.6-0.8,2.4
				c-0.7,1.5-1.5,3-2.5,4.3c-1,1.3-2.2,2.5-3.5,3.6c-1.3,1-2.9,1.9-4.6,2.2c1-1.4,2-2.6,2.9-3.9l2.8-3.7c0.9-1.2,1.9-2.5,2.9-3.7
				c0.5-0.6,1-1.2,1.5-1.8C853.1,811.7,853.7,811.1,854.1,810.4z"/>
		</g>
		<path class="st0" d="M812.3,1011.6c-23.9,8.3-47.1,8.9-69.5,0l-27.6-136.6h121L812.3,1011.6z"/>
	</g>
</g>
<polygon class="st8" points="1698.9,1031.1 1726.3,986.8 1774.5,986.8 1812.5,1018.2 1809.2,1050.6 1768.9,1047.3 1744.2,1074.1 
	1710.7,1049.5 "/>
<g>
	<polygon class="st16" points="1003.8,1589.3 936.2,2144.6 959.5,2144.6 1039.2,1592 	"/>
	<polygon class="st16" points="1415.8,1589.7 1483.4,2145 1460.2,2145 1380.5,1592.4 	"/>
</g>
<polygon class="st2" points="961,1615.9 1482,1615.9 1428.5,1518.5 1480.8,1061.8 961.3,1061.8 1009.1,1519.4 "/>
<polygon class="st17" points="1009.6,1519.9 1426.9,1519.9 1482.2,1615.9 957.7,1615.9 "/>
<polygon class="st18" points="961.4,1061.8 987.7,1290.9 1009.6,1519.9 1074.7,1278.8 1288.2,1061.8 "/>
<polygon class="st19" points="1744.2,1074.1 1775.6,1074.1 1812.5,1062.9 1822.6,1052.9 1818.1,1037.2 1810.3,1037.2 1809.2,1050.6 
	1768.9,1047.3 "/>
<polygon class="st20" points="1242.8,792.1 1265.2,855.9 1242.8,901.8 1185.7,1061.8 1046.9,1061.8 961.8,1061.8 975.2,1178.2 
	945,1183.8 905.8,1150.2 905.8,1056.2 987.6,890.6 1023.4,870.4 1157.7,839.1 1173.4,846.9 1182.3,799.9 "/>
<polygon class="st17" points="1352.5,977.9 1411.8,1061.8 1288.7,1061.8 "/>
<g>
	<g>
		<path class="st21" d="M1343.2,163.4c-4.2,4.9-8.7,9.4-13.2,13.9c-4.6,4.5-9.2,8.8-13.9,13c-4.7,4.2-9.5,8.4-14.4,12.4
			c-4.9,4-9.8,8-14.8,11.9l-0.3-9.7c2.7,1.8,5.4,3.7,8.1,5.5l8,5.6c5.3,3.8,10.5,7.7,15.7,11.7c5.1,4,10.2,8.1,15.2,12.3
			c5,4.3,9.9,8.6,14.5,13.4c-6.1-2.5-12-5.4-17.9-8.4c-5.8-3-11.5-6.2-17.2-9.4c-5.7-3.2-11.2-6.6-16.7-10.1l-8.2-5.3
			c-2.7-1.8-5.4-3.6-8.1-5.4l-6.9-4.7l6.6-5c5-3.8,10.1-7.6,15.2-11.3c5.1-3.7,10.3-7.3,15.6-10.8c5.3-3.5,10.6-6.9,16.1-10.2
			C1331.9,169.5,1337.4,166.3,1343.2,163.4z"/>
	</g>
	<g>
		<path class="st21" d="M1415.4,163.4c5.7,2.9,11.2,6.1,16.6,9.3c5.4,3.3,10.7,6.7,15.9,10.2c5.2,3.5,10.3,7.1,15.4,10.8
			c5.1,3.7,10.1,7.5,15,11.3l6.4,5l-6.7,4.7c-2.6,1.8-5.3,3.6-8,5.4l-8.1,5.3c-5.4,3.4-10.9,6.8-16.5,10.1
			c-5.6,3.3-11.2,6.4-16.9,9.4c-5.8,3-11.6,5.9-17.6,8.4c4.6-4.7,9.4-9.1,14.3-13.3c4.9-4.3,9.9-8.3,15-12.3
			c5.1-4,10.2-7.9,15.4-11.7l7.9-5.6c2.7-1.8,5.3-3.7,7.9-5.5l-0.3,9.7c-4.9-3.9-9.8-7.8-14.6-11.9c-4.8-4-9.5-8.2-14.2-12.4
			c-4.6-4.2-9.2-8.5-13.7-13C1423.9,172.8,1419.5,168.3,1415.4,163.4z"/>
	</g>
	<g>
		<g>
			<path class="st21" d="M1397.2,158.9c-0.2,4.3-0.9,8.5-1.6,12.6c-0.7,4.1-1.7,8.2-2.7,12.2c-1,4-2.2,8-3.4,11.9
				c-1.3,3.9-2.6,7.8-4,11.7l-11.2-4.2c1.4-3.9,3-7.7,4.6-11.5c1.7-3.8,3.4-7.6,5.3-11.3c1.9-3.7,3.9-7.4,6-11
				C1392.3,165.8,1394.5,162.3,1397.2,158.9z M1397.2,158.9c-0.2,4.3-0.9,8.5-1.6,12.6c-0.7,4.1-1.7,8.2-2.7,12.2
				c-1,4-2.2,8-3.4,11.9c-1.3,3.9-2.6,7.8-4.1,11.7l-11.2-4.2c1.4-3.9,3-7.7,4.7-11.5c1.7-3.8,3.4-7.6,5.3-11.3
				c1.9-3.7,3.9-7.4,6-11C1392.3,165.9,1394.6,162.3,1397.2,158.9z"/>
		</g>
		<g>
			<path class="st21" d="M1361.4,257.8c0.4-5,1.2-9.9,2.1-14.7c0.9-4.8,2-9.6,3.2-14.3c1.2-4.7,2.5-9.4,3.9-14
				c1.4-4.6,2.9-9.3,4.5-13.8l11.3,4c-1.6,4.6-3.3,9.1-5.1,13.6c-1.8,4.5-3.7,9-5.8,13.4c-2,4.4-4.2,8.8-6.5,13.1
				C1366.7,249.4,1364.3,253.7,1361.4,257.8z M1361.4,257.8c0.4-5,1.2-9.9,2.1-14.7c0.9-4.8,2-9.6,3.2-14.3c1.2-4.7,2.5-9.4,3.9-14
				c1.4-4.6,2.9-9.3,4.5-13.8l11.3,4c-1.6,4.6-3.3,9.1-5.1,13.6c-1.8,4.5-3.7,9-5.8,13.4c-2,4.4-4.2,8.8-6.5,13.1
				C1366.7,249.4,1364.3,253.7,1361.4,257.8z"/>
		</g>
	</g>
</g>
<g>
	<line class="st6" x1="1643.7" y1="259.7" x2="1791.4" y2="259.7"/>
	<line class="st6" x1="1643.7" y1="279" x2="1756.7" y2="279"/>
	<line class="st6" x1="1643.7" y1="298.3" x2="1735.5" y2="298.3"/>
</g>
<rect x="1818.3" y="519" class="st22" width="139.7" height="221"/>
<g>
	<line class="st6" x1="1833.7" y1="552.7" x2="1892" y2="553"/>
	<line class="st6" x1="1833.7" y1="572" x2="1881" y2="572"/>
	<line class="st6" x1="1833.7" y1="591.3" x2="1892.9" y2="591.3"/>
</g>
<g>
	<line class="st6" x1="1873" y1="610" x2="1929" y2="609.7"/>
	<line class="st6" x1="1874" y1="629" x2="1904.6" y2="629"/>
	<line class="st6" x1="1833.7" y1="648.3" x2="1892.9" y2="648.3"/>
</g>
<g>
	<line class="st6" x1="1833.7" y1="666.7" x2="1929" y2="666.7"/>
	<line class="st6" x1="1833.7" y1="686" x2="1906.6" y2="686"/>
	<line class="st6" x1="1833.7" y1="705.3" x2="1892.9" y2="705.3"/>
</g>
<g>
	<line class="st6" x1="1503.8" y1="588.7" x2="1670.6" y2="588.7"/>
	<line class="st6" x1="1503.8" y1="608.1" x2="1631.4" y2="608.1"/>
	<line class="st6" x1="1503.8" y1="627.4" x2="1607.4" y2="627.4"/>
</g>
<line class="st6" x1="1644.8" y1="375.5" x2="1736.6" y2="375.5"/>
<line class="st6" x1="1643.7" y1="394.8" x2="1717.6" y2="394.8"/>
<line class="st6" x1="1643.7" y1="414.1" x2="1735.5" y2="414.1"/>
<line class="st6" x1="1696.3" y1="317.6" x2="1775.8" y2="317.6"/>
<line class="st6" x1="1696.3" y1="336.9" x2="1767.9" y2="336.9"/>
<line class="st6" x1="1696.3" y1="356.2" x2="1770.2" y2="356.2"/>
<polygon class="st20" points="1472.2,1133.5 1505.8,1169.3 1710.7,1049.5 1747.6,1037.2 1768.9,1047.3 1744.2,1074.1 1755.4,1082 
	1589.8,1195 1515.9,1215.2 1465.4,1196.3 "/>
</svg>
